<?xml version="1.0" standalone="no"?>
<!DOCTYPE svg PUBLIC "-//W3C//DTD SVG 20010904//EN"
 "http://www.w3.org/TR/2001/REC-SVG-20010904/DTD/svg10.dtd">
<svg version="1.0" xmlns="http://www.w3.org/2000/svg"
 width="256.000000pt" height="256.000000pt" viewBox="0 0 256.000000 256.000000"
 preserveAspectRatio="xMidYMid meet">
<metadata>
Created by potrace 1.11, written by Peter Selinger 2001-2013
</metadata>
<g transform="translate(0.000000,256.000000) scale(0.100000,-0.100000)"
fill="#000000" stroke="none">
<path d="M140 2267 c0 -35 42 -157 77 -222 16 -29 82 -124 123 -175 20 -25 20
-29 6 -125 -21 -146 -35 -275 -51 -496 -21 -275 -2 -428 72 -574 96 -192 276
-311 563 -372 118 -25 482 -30 613 -8 171 28 283 64 388 126 147 85 254 231
293 399 36 151 28 443 -25 860 l-19 155 20 25 c68 84 123 162 146 210 40 81
75 210 58 210 -5 0 -36 -30 -69 -66 -110 -120 -268 -234 -429 -309 -53 -25
-102 -45 -109 -45 -7 0 -17 -4 -23 -8 -20 -19 -167 -54 -309 -74 -207 -30
-523 3 -690 72 -11 4 -45 18 -75 30 -162 66 -319 170 -455 306 -53 52 -98 94
-100 94 -3 0 -5 -6 -5 -13z m725 -931 c46 -10 65 -19 65 -32 0 -7 7 -17 16
-22 18 -10 37 -79 22 -84 -5 -2 -10 -32 -11 -68 -1 -36 -5 -67 -9 -70 -4 -3
-9 -18 -12 -34 -3 -15 -10 -34 -17 -42 -9 -11 -8 -14 2 -14 7 0 3 -7 -10 -16
-18 -13 -20 -18 -10 -25 11 -7 10 -9 -5 -9 -12 0 -16 -5 -13 -14 4 -11 1 -13
-10 -9 -12 5 -15 2 -10 -9 4 -12 0 -15 -16 -11 -16 3 -18 2 -8 -5 8 -6 9 -12
3 -16 -6 -3 -13 -2 -16 3 -4 5 -23 7 -43 4 -24 -4 -34 -3 -30 4 4 6 -1 17 -10
24 -14 12 -16 12 -8 0 5 -10 4 -12 -4 -7 -6 4 -10 15 -9 24 2 9 -3 16 -9 14
-7 -1 -13 5 -13 13 0 8 -7 15 -15 15 -9 0 -15 10 -15 26 0 14 -4 23 -9 19 -6
-3 -8 3 -6 14 2 10 -5 28 -16 40 -11 12 -17 25 -14 30 3 5 1 12 -4 16 -6 3 -8
19 -6 35 2 17 -3 43 -11 60 -11 21 -12 34 -5 48 6 11 7 23 3 27 -4 5 -2 5 5 2
6 -4 13 -4 15 0 6 15 68 53 105 67 35 12 89 13 138 2z m915 -26 c0 -5 18 -10
40 -10 24 0 40 -5 40 -12 0 -6 3 -9 6 -5 3 3 15 -3 27 -13 11 -11 25 -16 31
-13 6 4 5 -1 -3 -10 -7 -9 -11 -24 -7 -33 3 -8 2 -23 -4 -33 -5 -10 -10 -37
-11 -59 -2 -23 -7 -42 -11 -42 -4 0 -8 -12 -9 -27 0 -16 -3 -22 -6 -15 -4 10
-9 10 -23 -3 -10 -9 -16 -23 -13 -31 3 -10 0 -12 -10 -9 -8 4 -17 -1 -20 -9
-7 -18 -87 -23 -87 -5 0 5 -4 7 -10 4 -5 -3 -10 1 -10 10 0 10 -5 13 -12 9 -6
-4 -8 -3 -4 4 3 6 2 13 -4 17 -6 4 -7 12 -3 18 4 7 -1 6 -11 -2 -9 -8 -16 -10
-15 -5 4 21 -2 45 -10 40 -7 -5 -8 18 -1 49 5 21 0 46 -9 41 -4 -3 -13 6 -19
19 -7 15 -8 25 -2 25 6 0 10 5 10 11 0 5 -4 8 -9 5 -5 -4 -8 0 -7 8 2 15 26
40 41 43 26 4 40 9 45 14 5 5 65 26 83 28 4 1 7 -3 7 -9z m-1190 -640 c0 -5 5
-10 11 -10 5 0 7 5 4 10 -3 6 -4 10 0 10 3 0 10 -11 15 -25 6 -15 17 -25 29
-25 10 0 24 -7 31 -15 7 -8 23 -15 36 -15 15 0 24 -6 24 -15 0 -8 9 -15 20
-15 11 0 20 -4 20 -9 0 -5 14 -13 31 -16 20 -5 27 -10 19 -15 -8 -5 -5 -9 9
-13 13 -3 21 -13 21 -26 0 -19 -6 -21 -52 -21 -48 0 -128 22 -153 42 -45 36
-56 48 -66 74 -7 16 -12 32 -11 37 1 4 -5 7 -13 7 -8 0 -15 4 -15 10 0 5 7 7
15 4 18 -7 20 7 3 24 -9 9 -8 12 5 12 9 0 17 -4 17 -10z m1381 -13 c-6 -6 -11
-23 -11 -37 0 -27 -62 -110 -81 -110 -6 0 -17 -7 -25 -15 -41 -41 -224 -56
-224 -19 0 8 3 14 8 14 4 0 20 12 35 26 25 23 41 30 70 33 5 1 5 6 2 11 -3 6
2 10 13 10 24 0 134 55 127 63 -3 4 -2 5 1 2 8 -6 64 26 64 37 0 4 7 5 16 1
11 -4 12 -9 5 -16z"/>
</g>
</svg>
