<?xml version="1.0" encoding="UTF-8" standalone="no"?>
<svg
   xmlns:dc="http://purl.org/dc/elements/1.1/"
   xmlns:cc="http://creativecommons.org/ns#"
   xmlns:rdf="http://www.w3.org/1999/02/22-rdf-syntax-ns#"
   xmlns:svg="http://www.w3.org/2000/svg"
   xmlns="http://www.w3.org/2000/svg"
   xmlns:sodipodi="http://sodipodi.sourceforge.net/DTD/sodipodi-0.dtd"
   xmlns:inkscape="http://www.inkscape.org/namespaces/inkscape"
   viewBox="0 0 60.137122 30.022823"
   width="1202.7424"
   height="600.45648"
   id="svg2"
   version="1.1"
   inkscape:version="0.48.4 r9939"
   sodipodi:docname="Flag_of_the_United_Kingdom.svg">
  <metadata
     id="metadata21">
    <rdf:RDF>
      <cc:Work
         rdf:about="">
        <dc:format>image/svg+xml</dc:format>
        <dc:type
           rdf:resource="http://purl.org/dc/dcmitype/StillImage" />
      </cc:Work>
    </rdf:RDF>
  </metadata>
  <defs
     id="defs19" />
  <sodipodi:namedview
     pagecolor="#ffffff"
     bordercolor="#666666"
     borderopacity="1"
     objecttolerance="10"
     gridtolerance="10"
     guidetolerance="10"
     inkscape:pageopacity="0"
     inkscape:pageshadow="2"
     inkscape:window-width="1366"
     inkscape:window-height="705"
     id="namedview17"
     showgrid="false"
     inkscape:zoom="0.35355339"
     inkscape:cx="966.23013"
     inkscape:cy="367.82676"
     inkscape:window-x="-8"
     inkscape:window-y="-8"
     inkscape:window-maximized="1"
     inkscape:current-layer="svg2"
     fit-margin-top="0"
     fit-margin-left="0"
     fit-margin-right="0"
     fit-margin-bottom="0" />
  <clipPath
     id="t">
    <path
       d="m 30,15 h 30 v 15 z m 0,0 V 30 H 0 z m 0,0 H 0 V 0 z m 0,0 V 0 h 30 z"
       id="path5"
       inkscape:connector-curvature="0" />
  </clipPath>
  <path
     inkscape:connector-curvature="0"
     style="fill:#00247d;fill-opacity:1"
     d="m 0.00607169,1.6753189e-4 60.13036631,0 0,30.02246046811 -60.13036631,0 z"
     id="rect3764" />
  <path
     inkscape:connector-curvature="0"
     d="M 0,1.6939189e-4 6.0299484e-4,3.5028124 22.98948,15.005242 6.0299484e-4,26.456068 l 0,3.566756 6.79725060516,0 23.2087484,-11.505558 22.994515,11.505558 7.135516,0 0,-3.532354 -23.045254,-11.485228 23.045254,-11.4242457 0,-3.58082690811 -7.020881,0 L 30.042309,11.493217 6.9820203,1.6939189e-4 z"
     id="rect4"
     style="fill:#ffffff;fill-opacity:1;stroke:none"
     sodipodi:nodetypes="ccccccccccccccccc" />
  <path
     style="fill:#cf142b;fill-opacity:1;stroke:none"
     d="M 55.590278,1.3154639e-4 27.687869,13.870641 2.3383e-4,4.0773317e-5 2.3383e-4,2.2300259 27.827249,16.191264 1.0089996e-5,30.022799 4.546269,30.021199 32.318694,16.217792 l 27.817845,13.804967 0,-2.229984 L 32.20594,13.905021 60.136541,1.3154639e-4 z"
     id="path3005"
     inkscape:connector-curvature="0"
     sodipodi:nodetypes="ccccccccccccc" />
  <path
     inkscape:connector-curvature="0"
     id="path4313"
     d="m 25.307653,3.2686255e-4 0,10.18643413745 -25.30171704,0 0.0012971,9.796871 25.09036794,0 0.02302,10.016295 9.64899,0.02279 -0.02439,-9.934942 25.391871,-0.104132 3.1e-5,-9.796871 -25.181821,0.104133 0,-10.2909055381017 z"
     style="fill:#ffffff;fill-opacity:1"
     sodipodi:nodetypes="ccccccccccccc" />
  <path
     style="fill:#cf142b;fill-opacity:1"
     d="m 27.098196,1.4668189e-4 0,12.00834431811 -27.09808625,0 0,6.079127 27.09808625,0 0,11.934951 6.013628,0 0,-11.934951 27.024579,0 0,-6.079127 -27.024579,0 0,-12.00834431811 -6.013628,0 z"
     id="rect3000"
     inkscape:connector-curvature="0" />
</svg>
