<?xml version="1.0" encoding="UTF-8" standalone="no"?><!DOCTYPE svg PUBLIC "-//W3C//DTD SVG 1.1//EN" "http://www.w3.org/Graphics/SVG/1.1/DTD/svg11.dtd"><svg width="100%" height="100%" viewBox="0 0 883 175" version="1.1" xmlns="http://www.w3.org/2000/svg" xmlns:xlink="http://www.w3.org/1999/xlink" xml:space="preserve" style="fill-rule:evenodd;clip-rule:evenodd;stroke-linejoin:round;stroke-miterlimit:1.41421;"><g id="heading" transform="matrix(1,0,0,1,-196,-266.31)"><g transform="matrix(0.866904,-0.498476,0.498476,0.866904,-191.562,171.359)"><text x="225.108px" y="444.401px" style="font-family:'Krungthep';font-size:96px;fill:#9700ff;">D</text></g><g transform="matrix(0.919362,-0.393414,0.393414,0.919362,-139.696,143.68)"><text x="280.641px" y="412.611px" style="font-family:'Krungthep';font-size:96px;fill:#9700ff;">o</text></g><g transform="matrix(0.962523,-0.271198,0.271198,0.962523,-89.4321,112.356)"><text x="361.817px" y="379.765px" style="font-family:'Krungthep';font-size:96px;fill:#9700ff;">Y</text></g><g transform="matrix(0.981075,-0.193627,0.193627,0.981075,-62.1709,88.839)"><text x="423.388px" y="362.467px" style="font-family:'Krungthep';font-size:96px;fill:#9700ff;">o</text></g><g transform="matrix(0.992466,-0.122521,0.122521,0.992466,-39.2315,62.2097)"><text x="486.217px" y="350.1px" style="font-family:'Krungthep';font-size:96px;fill:#9700ff;">u</text></g><g transform="matrix(0.99936,-0.0357712,0.0357712,0.99936,-11.8175,20.7155)"><text x="573.016px" y="340.617px" style="font-family:'Krungthep';font-size:96px;fill:#9700ff;">S</text></g><g transform="matrix(0.999681,0.025262,-0.025262,0.999681,8.75176,-15.7854)"><text x="629.143px" y="338.491px" style="font-family:'Krungthep';font-size:96px;fill:#9700ff;">p</text></g><g transform="matrix(0.995872,0.09077,-0.09077,0.995872,33.7316,-61.5086)"><text x="693.098px" y="340.095px" style="font-family:'Krungthep';font-size:96px;fill:#9700ff;">e</text></g><g transform="matrix(0.987283,0.158973,-0.158973,0.987283,64.6102,-115.918)"><text x="756.835px" y="345.879px" style="font-family:'Krungthep';font-size:96px;fill:#9700ff;">a</text></g><g transform="matrix(0.971525,0.236939,-0.236939,0.971525,107.664,-184.168)"><text x="820.044px" y="355.843px" style="font-family:'Krungthep';font-size:96px;fill:#9700ff;">k</text></g><g transform="matrix(0.942613,0.333887,-0.333887,0.942613,178.052,-280.363)"><text x="904.628px" y="377.788px" style="font-family:'Krungthep';font-size:96px;fill:#9700ff;">I</text></g><g transform="matrix(0.914777,0.40396,-0.40396,0.914777,240.046,-350.193)"><text x="949.984px" y="393.814px" style="font-family:'Krungthep';font-size:96px;fill:#9700ff;">t</text></g><g transform="matrix(0.868657,0.495415,-0.495415,0.868657,335.032,-438.259)"><text x="994.052px" y="412.725px" style="font-family:'Krungthep';font-size:96px;fill:#9700ff;">?</text></g></g></svg>